<?xml version="1.0" standalone="no"?><!DOCTYPE svg PUBLIC "-//W3C//DTD SVG 1.1//EN" "http://www.w3.org/Graphics/SVG/1.1/DTD/svg11.dtd"><svg t="1709107218418" class="icon" viewBox="0 0 1024 1024" version="1.1" xmlns="http://www.w3.org/2000/svg" p-id="20066" xmlns:xlink="http://www.w3.org/1999/xlink" width="128" height="128"><path d="M144.64 176.33m-79.92 0a79.92 79.92 0 1 0 159.84 0 79.92 79.92 0 1 0-159.84 0Z" p-id="20067"></path><path d="M512.28 176.33m-79.92 0a79.92 79.92 0 1 0 159.84 0 79.92 79.92 0 1 0-159.84 0Z" p-id="20068"></path><path d="M879.92 176.33m-79.92 0a79.92 79.92 0 1 0 159.84 0 79.92 79.92 0 1 0-159.84 0Z" p-id="20069"></path><path d="M144.64 512m-79.92 0a79.92 79.92 0 1 0 159.84 0 79.92 79.92 0 1 0-159.84 0Z" p-id="20070"></path><path d="M512.28 512m-79.92 0a79.92 79.92 0 1 0 159.84 0 79.92 79.92 0 1 0-159.84 0Z" p-id="20071"></path><path d="M879.92 512m-79.92 0a79.92 79.92 0 1 0 159.84 0 79.92 79.92 0 1 0-159.84 0Z" p-id="20072"></path><path d="M144.64 847.67m-79.92 0a79.92 79.92 0 1 0 159.84 0 79.92 79.92 0 1 0-159.84 0Z" p-id="20073"></path><path d="M512.28 847.67m-79.92 0a79.92 79.92 0 1 0 159.84 0 79.92 79.92 0 1 0-159.84 0Z" p-id="20074"></path><path d="M879.92 847.67m-79.92 0a79.92 79.92 0 1 0 159.84 0 79.92 79.92 0 1 0-159.84 0Z" p-id="20075"></path></svg>